<svg width="153" height="253" viewBox="0 0 153 253" fill="none" xmlns="http://www.w3.org/2000/svg">
<path d="M107.207 51.0892C105.462 48.4523 103.401 48.4894 104.329 46.1682C105.258 43.847 106.409 40.4303 106.019 38.9818C105.629 37.5334 108.656 37.2364 108.006 34.8223C107.725 33.7772 107.186 33.5778 106.634 33.5703M102.305 48.2665C99.1855 50.1419 98.0899 49.9191 95.6387 48.5077C95.4327 48.3891 95.2256 48.2616 95.0184 48.1268M96.4002 43.6425C98.1086 44.2182 99.557 43.8283 100.876 42.9556M97.8116 41.1914C99.0001 39.8358 100.578 39.9287 99.7057 38.6103C98.833 37.2918 97.2175 35.1377 98.0532 34.3949C98.8888 33.6522 100.69 32.6495 102.398 33.2252M94.4135 34.3391C92.9651 34.7291 91.3867 34.6362 90.681 35.8617M106.634 33.5703C105.91 33.5603 105.164 33.8795 104.942 33.0581C104.553 31.6097 103.29 28.8428 102.677 28.49C102.064 28.1371 100.523 30.1055 96.4006 30.1796C92.2782 30.2538 91.4054 28.9353 89.8641 30.9037C88.3228 32.872 87.0414 35.8059 88.0441 37.6072C87.4064 37.3287 86.4523 37.2381 86.1251 38.1725M106.634 33.5703C105.388 30.8669 107.238 31.3422 106.634 28.49C104.942 20.5 102.081 25.294 99.5 21C96.5409 16.0777 83.2724 23.3894 84.5 29C85.5 33.5702 81 35.8617 86.1251 38.1725M86.1251 38.1725C85.9505 38.6711 85.9543 39.4616 86.2799 40.6711C87.4497 45.0164 89.0839 41.4697 89.3438 42.4353C89.5854 43.3325 92.303 46.3598 95.0184 48.1268M95.0184 48.1268C95.5459 50.0861 95.0072 53.8557 95.1372 54.3385" stroke="white" stroke-width="1.2" stroke-linecap="round"/>
<path d="M87.1523 55.4525C84.8101 57.5343 82.2842 59.8665 79.7647 62.6324M65.2022 89.3227C66.861 91.6378 70.0189 96.8287 69.3801 99.0719M65.2022 89.3227L53.9308 76.3052M65.2022 89.3227C68.6549 76.9839 74.1941 68.7479 79.7647 62.6324M53.9308 76.3052C53.4604 77.1222 51.7024 79.1834 48.4341 80.8917C45.1659 82.6 42.5661 82.8166 41.6748 82.7113M53.9308 76.3052C53.4109 74.3739 54.2062 71.5577 54.4324 70.4744C54.6585 69.3911 52.8356 62.6194 50.7744 62.6565C48.7132 62.6936 50.4957 67.3917 50.2728 68.4873C50.05 69.5829 46.9302 71.4584 46.7074 72.5539M41.6748 82.7113C43.5747 96.1805 50.0708 121.979 60.8562 117.418C74.3378 111.718 86.9841 93.2972 87.1699 90.1404C87.3557 86.9836 92.9894 69.4415 79.7647 62.6324M41.6748 82.7113L39.5602 78.7032M46.7074 72.5539C46.5291 73.4304 46.5092 75.0237 46.5216 75.7108M46.7074 72.5539L39.5602 78.7032M35.4727 75.0605C26.9496 66.4812 26.4668 66.6111 27.1724 65.3856C27.737 64.4051 32.4832 68.4435 34.7858 70.5852C31.8581 67.4036 26.4075 60.6206 28.0268 58.942C29.6461 57.2633 34.7055 63.8754 37.0328 67.3913C34.5755 63.3926 30.311 55.1167 32.9107 54.0026C35.5105 52.8885 38.5 61.3006 39.6697 65.6459C39.1808 63.1885 38.9049 58.1883 41.7126 57.8467C45.2222 57.4197 50.9602 59.4997 49.9017 61.338C48.8431 63.1764 44.3308 61.8021 43.4951 62.5449C42.8266 63.1391 43.4146 64.8104 43.7922 65.5717M46.6519 62.7307L33.0958 77.7716C33.0958 77.7716 33.3973 78.8917 34.2492 80.1329C35.1012 81.3742 36.1968 81.597 36.1968 81.597L39.5602 78.7032M53.7454 65.9991L58.4065 62.1553C58.1465 61.1897 57.3555 59.0208 56.2711 58.07C55.1867 57.1192 52.9596 56.0272 51.9816 55.6001L49.3818 59.4068" stroke="white"/>
<path d="M87.1523 55.4525C84.8101 57.5343 82.2842 59.8665 79.7647 62.6324M65.2022 89.3227C66.861 91.6378 70.0189 96.8287 69.3801 99.0719M65.2022 89.3227L53.9308 76.3052M65.2022 89.3227C68.6549 76.9839 74.1941 68.7479 79.7647 62.6324M53.9308 76.3052C53.4604 77.1222 51.7024 79.1834 48.4341 80.8917C45.1659 82.6 42.5661 82.8166 41.6748 82.7113M53.9308 76.3052C53.4109 74.3739 54.2062 71.5577 54.4324 70.4744C54.6585 69.3911 52.8356 62.6194 50.7744 62.6565C48.7132 62.6936 50.4957 67.3917 50.2728 68.4873C50.05 69.5829 46.9302 70.4584 46.7074 71.5539M41.6748 82.7113C43.5747 96.1805 50.2147 121.06 61 116.5C74.4816 110.8 86.9841 93.2972 87.1699 90.1404C87.3557 86.9836 92.9894 69.4415 79.7647 62.6324M41.6748 82.7113L39.5602 77.7032M46.7074 71.5539C46.5291 72.4304 46.5092 75.0237 46.5216 75.7108M46.7074 71.5539L39.5602 77.7032M35.4727 75.0605C26.9496 66.4812 26.4668 66.6111 27.1724 65.3856C27.737 64.4051 32.4832 68.4435 34.7858 70.5852C31.8581 67.4036 26.4075 60.6206 28.0268 58.942C29.6461 57.2633 34.7055 63.8754 37.0328 67.3913C34.5755 63.3926 30.311 55.1167 32.9107 54.0026C35.5105 52.8885 38.5 61.3006 39.6697 65.6459C39.1808 63.1885 38.9049 58.1883 41.7126 57.8467C45.2222 57.4197 50.9602 59.4997 49.9017 61.338C48.8431 63.1764 44.3308 61.8021 43.4951 62.5449C42.8266 63.1391 43.4146 64.8104 43.7922 65.5717M47 62.354L33.0958 77.7716C33.0958 77.7716 33.3973 78.8917 34.2492 80.1329C35.1012 81.3742 36.1968 80.597 36.1968 80.597L39.5602 77.7032M53.2646 65.6459L57.4065 62.1553C57.1465 61.1897 57.3555 59.0208 56.2711 58.07C55.1867 57.1192 52.9596 56.0272 51.9816 55.6001L49.3818 59.4068" stroke="white"/>
<path d="M117.087 47.3941C119.413 47.8132 122.247 48.4822 125.4 49.4237M136.008 81.1355C132 79.5 123.305 60.5 125.4 49.4237M136.008 81.1355C138.147 92.1584 139.573 99.5071 138.217 102.806M136.008 81.1355C142.365 82.1736 147.643 85.3624 152 89.3147M125.4 49.4237C133.255 51.7691 143.091 55.8057 152 61.8826M87.9685 87.3364C90.0184 93.4124 94.9748 108.234 98.4038 114.56M98.4038 114.56C100.799 115.123 109.909 114.983 117.53 112.518C125.151 110.052 135.698 104.347 138.217 102.806M98.4038 114.56C97.9949 127.787 100.133 156.761 102.302 169.433C105.013 185.273 120.127 216.414 119.812 219.088C119.496 221.762 109.468 230.675 112.346 235.596C115.224 240.517 128.576 234.334 131.176 230.527C133.776 226.721 138.623 219.72 138.585 217.659C138.548 215.598 125.792 173.983 125.068 167.446C124.489 162.217 123.651 140.384 123.305 130.122C129.16 140.973 141.072 163.035 141.874 164.476C142.661 165.89 148.395 192.798 151.9 205.5M138.217 102.806C143.944 109.111 148.443 117.31 151.9 125.183" stroke="white" stroke-width="1.2"/>
<path d="M117.087 47.3942C119.413 47.8132 122.247 48.4822 125.4 49.4237M136.008 81.1355C132 79.5 123.305 60.5 125.4 49.4237M136.008 81.1355C138.147 92.1584 139.573 99.5071 138.217 102.806M136.008 81.1355C142.365 82.1736 147.643 85.3624 152 89.3147M125.4 49.4237C133.255 51.7691 143.091 55.8057 152 61.8826M87.9685 85.3364C90.0184 91.4124 95.9748 108.234 99.4038 114.56M99.4038 114.56C101.799 115.123 109.909 114.983 117.531 112.518C125.152 110.052 135.698 104.347 138.217 102.806M99.4038 114.56C98.9949 127.787 100.133 156.761 102.302 169.433C105.013 185.273 120.127 216.414 119.812 219.088C119.616 220.743 109.468 230.675 112.346 235.596C115.224 240.517 128.576 234.334 131.176 230.527C133.776 226.721 138.623 219.72 138.585 217.659C138.548 215.598 125.792 173.983 125.068 167.446C124.489 162.217 123.651 140.384 123.305 130.122C129.16 140.973 141.072 163.035 141.874 164.476C142.661 165.89 148.395 192.798 151.9 205.5M138.217 102.806C143.944 109.111 148.443 117.31 151.9 125.183" stroke="white" stroke-width="1.2"/>
<path d="M117.087 47.3941C119.413 47.8132 122.247 48.4821 125.4 49.4237M136.008 81.1355C132 79.5 123.305 60.5 125.4 49.4237M136.008 81.1355C138.147 92.1584 139.573 99.5071 138.217 102.806M136.008 81.1355C142.365 82.1736 147.643 85.3624 152 89.3147M125.4 49.4237C133.255 51.7691 143.091 55.8057 152 61.8826M87.9685 85.3364C90.0184 91.4124 95.9748 108.234 99.4038 114.56M99.4038 114.56C101.799 115.123 110.379 116.466 118 114C125.621 111.534 135.698 104.347 138.217 102.806M99.4038 114.56C98.9949 127.787 100.133 156.761 102.302 169.433C105.013 185.273 120.127 216.414 119.812 219.088C119.678 220.221 109.468 230.675 112.346 235.596C115.224 240.517 128.4 235.307 131 231.5C133.6 227.693 139.537 219.561 139.5 217.5C139.463 215.439 125.792 173.983 125.068 167.446C124.489 162.217 124.346 143.263 124 133C129.855 143.851 140.198 163.059 141 164.5C141.787 165.915 148.395 192.798 151.9 205.5M138.217 102.806C143.944 109.111 148.443 117.31 151.9 125.183" stroke="white" stroke-width="1.2" stroke-linecap="round"/>
<path d="M116.472 48.0987C122.904 38.3139 127.76 22.391 107.016 11.2693C86.2723 0.147573 72.1794 17.1801 71.6067 29.5206C71.052 41.4754 79.1245 50.0928 86.8673 54.7231" stroke="white" stroke-width="1.2" stroke-linecap="round"/>
<path d="M116.472 48.0987C122.904 38.3139 127.76 22.391 107.016 11.2693C86.2723 0.147579 72.0913 16.6945 71 29C69.8933 41.4794 79.2572 50.8696 87 55.5" stroke="white" stroke-width="1.2" stroke-linecap="round"/>
<path d="M106.098 13.6248C124.853 23.6801 123.753 47.1529 101.934 54.5801C84.7753 58.1636 73.5826 40.9345 74.0841 30.126C74.6019 18.9688 87.3434 3.56957 106.098 13.6248Z" stroke="white" stroke-width="0.7" stroke-linecap="round"/>
<path d="M57.7424 47.4716C60.1019 46.8364 62.3269 46.8062 64.0933 47.4781C65.8349 48.1407 67.1787 49.5025 67.7905 51.7751C69.0416 56.4228 67.123 60.8444 62.61 62.0593C60.8224 62.5405 59.2745 62.8486 57.8023 62.3604C57.539 62.2731 57.4639 62.1874 57.4265 62.1289C57.3691 62.0391 57.3339 61.9116 57.2748 61.6104C57.1587 61.0197 56.9997 60.1528 56.1459 58.9612C55.5532 58.134 55.0004 57.6192 54.4803 57.301C53.9533 56.9786 53.4869 56.8745 53.1027 56.8304C52.9319 56.8109 52.7384 56.8007 52.632 56.7913C52.5018 56.7798 52.4318 56.7668 52.3863 56.7502C52.3537 56.7384 52.3374 56.7259 52.3189 56.7026C52.2938 56.6711 52.2505 56.5988 52.2078 56.4403C51.5839 54.1228 51.8463 52.2038 52.7854 50.7194C53.7292 49.2279 55.403 48.1013 57.7424 47.4716Z" stroke="white"/>
<path d="M55.5 48.5C59.0467 50.1342 64.0917 51.7895 64.5 61" stroke="white" stroke-width="1.2"/>
<path d="M70.4206 76.0085C72.556 80.0939 86.4833 72.2022 76.3259 67.1696M135.5 53.5C135.167 55.6667 134.2 60.4 133 62L139.5 65.5C140.667 63.5 143 58.9 143 56.5M103 152.5L118.5 152.5M103 147L118.5 146.5M103 141.5L118 140.5" stroke="white" stroke-width="1.2"/>
<path d="M70.4206 76.0085C72.556 80.0939 86.4833 72.2022 76.3259 67.1696M135.5 53.5C135.167 55.6667 134.2 60.4 133 62L139.5 65.5C140.667 63.5 143 58.9 143 56.5M103 152.5L118.5 152.5M103 147L118.5 146.5M103 141.5L118 140.5" stroke="white" stroke-width="1.2"/>
<path d="M70.4206 76.0085C72 79.5 85 71.5 76.3259 67.1696M135.5 53.5C135.196 55.4766 134.365 59.5893 133.31 61.5104C133.163 61.7785 133.242 62.1305 133.512 62.2755L139.075 65.2709C139.312 65.3987 139.608 65.3159 139.74 65.081C140.958 62.9147 143 58.7449 143 56.5M103 152.5L118.5 152.5M103 147L118.5 146.5M103 141.5L118 140.5" stroke="white" stroke-width="1.2" stroke-linecap="round"/>
<path d="M117 58.75C118.03 58.75 119.086 59.1659 119.885 59.833C120.684 60.5005 121.25 61.4408 121.25 62.5C121.25 64.5711 119.571 66.25 117.5 66.25C115.429 66.25 113.75 64.5711 113.75 62.5C113.75 61.4902 114.028 60.5555 114.58 59.8682C115.137 59.175 115.959 58.75 117 58.75Z" stroke="white" stroke-width="0.5"/>
<path d="M115.5 68.5C115.5 66.5 121 60 121.5 57.5C121.6 57 116.5 64 113.5 65" stroke="white" stroke-width="0.5" stroke-linecap="round"/>
<path d="M34.5 80C29.5 86.5 11.5357 96.5 25.5 119.5C42.5 147.5 119 155 135.5 180.5C139.583 186.81 133 190.167 131.5 191M111.5 199C95 207 132.5 203 149 196" stroke="white"/>
<path d="M34.5 80C29.5 86.5 12.5357 96.5 26.5 119.5C43.5 147.5 118 156.5 135.5 180.5C139.928 186.572 133 190.167 131.5 191M111.5 199C95 207 132.5 203 149 196" stroke="white"/>
<path d="M9.9565 170.268C20.0378 166.455 31.0372 165.791 41.5034 168.363C51.9696 170.935 61.4109 176.623 68.5817 184.675C75.7525 192.728 80.3157 202.768 81.6692 213.47C83.0228 224.171 81.1031 235.033 76.1634 244.62" stroke="white"/>
<path d="M9.92613 170.161C20.0241 166.342 30.7581 166.072 41.2409 168.649C51.7238 171.225 60.9534 176.849 68.1387 184.918C75.3242 192.988 79.6286 203.244 80.9854 213.971C82.3422 224.699 81.1991 235.068 76.2484 244.677" stroke="white" stroke-linecap="round"/>
<path d="M9.52554 167.319C20.1717 163.359 31.4885 163.08 42.5404 165.751C53.5925 168.422 63.3231 174.253 70.8985 182.619C78.4741 190.985 83.0123 201.618 84.4427 212.74C85.8732 223.862 84.668 234.612 79.4485 244.574" stroke="white" stroke-opacity="0.2" stroke-width="3" stroke-linecap="round"/>
<path d="M25.9854 213.971C26.7883 214.359 28.635 215.134 29.5985 215.134C30.8029 215.134 31.6058 216.683 31.6058 218.233C31.6058 219.061 32.8026 220.63 33.9958 221.964C35.0271 223.117 36.3723 223.928 37.827 224.454L38.8321 224.818C39.3674 224.947 40.6788 225.128 41.6423 224.818C42.8467 224.431 44.0308 222.638 44.4525 223.656C45.2555 225.593 44.854 220.169 46.4598 217.07C46.9995 215.769 46.6851 214.318 46.9838 212.94C47.1406 212.217 47.2628 211.556 47.2628 211.26C47.2628 210.485 48.0657 209.323 49.6715 207.386C50.5378 206.341 49.9924 205.707 49.2169 205.366C48.533 205.064 47.8599 204.665 47.5161 204.001C47.3496 203.68 47.2628 203.323 47.2628 202.962V202.914C47.2628 202.08 47.687 201.303 48.3889 200.851L48.4671 200.801C49.2178 200.318 49.6715 199.486 49.6715 198.594V197.702V197.427C49.6715 196.356 49.2788 195.323 48.5677 194.522L47.5436 193.369C47.365 193.168 47.1089 193.053 46.8399 193.053C46.5961 193.053 46.3618 192.959 46.1863 192.789L45.8333 192.449C45.4626 192.091 44.9676 191.891 44.4525 191.891H43.5162C42.8091 191.891 42.109 192.03 41.4556 192.3L41.2477 192.386C40.2063 192.817 39.3506 193.602 38.8321 194.603C38.579 195.213 36.9379 196.609 32.4149 197.545C31.8788 197.656 31.3456 197.79 30.8273 197.967L25.8063 199.677C25.1383 199.904 24.4172 199.926 23.7368 199.738C22.63 199.433 21.4439 199.687 20.5591 200.419L19.1606 201.575M24.781 167.099C25.4835 168.229 25.3015 169.696 24.3441 170.62L23.5492 171.387C23.3008 171.626 23.083 171.896 22.9007 172.189L21.9708 173.684C21.7032 174.072 21.0876 175.001 20.7664 175.621C20.365 176.396 20.365 176.783 19.1606 177.558C18.8994 177.726 18.5535 177.917 18.1695 178.114C16.259 179.092 13.4789 178.005 11.9343 179.495C11.1314 180.27 11.5328 180.657 10.3285 181.045" stroke="white"/>
<path d="M55.292 245.736C58.1022 245.736 56.5585 243.412 60.1716 243.412C61.7894 243.412 62.4148 242.224 62.1047 240.637C61.9988 240.095 61.8866 239.572 61.7774 239.151C61.376 237.601 58.9672 235.664 57.7628 234.502C56.5585 233.34 54.9526 233.34 53.7482 232.953C53.286 232.804 52.8669 232.352 52.5264 231.837C51.8748 230.851 51.4042 229.744 50.7667 228.748C50.5096 228.347 50.2969 228.077 49.9654 227.917C49.323 227.607 51.803 224.431 49.9654 223.656C48.9624 223.233 47.4304 223.272 46.2457 223.394C45.3193 223.49 44.7827 224.432 45.0868 225.312C45.2334 225.736 45.1889 226.203 44.9649 226.593L43.3103 229.466C43.0426 229.983 42.2665 231.248 41.303 232.178C40.0986 233.34 40.0365 231.016 39.2336 232.178" stroke="white"/>
<path d="M60.9124 190.342C63.3046 184.736 61.6241 186.428 63.7952 183.471C64.5627 182.426 66.1162 182.403 66.9329 183.41L72.5547 190.342L76.277 196.447C76.4682 196.761 76.5963 197.139 76.4265 197.465C76.1721 197.953 75.5328 198.476 74.1606 198.476C71.7518 198.476 72.9562 199.251 73.3577 204.674C73.7591 210.098 71.7518 206.999 69.7445 209.323C67.7372 211.647 63.7226 211.647 59.708 211.647C55.6934 211.647 50.4745 209.323 56.8978 206.999C63.3212 204.674 50.073 201.188 55.6934 198.476C61.3139 195.765 58.1022 196.927 60.9124 190.342Z" stroke="white"/>
<path d="M60.1095 190.342C62.5077 184.722 61.3974 186.437 63.765 183.449C64.5703 182.433 66.1162 182.403 66.9329 183.41L72.5547 190.342L76.277 196.447C76.4682 196.761 76.5963 197.139 76.4265 197.465C76.1721 197.953 75.5328 198.476 74.1606 198.476C71.7518 198.476 72.1533 198.864 72.5547 204.287C72.9562 209.71 71.7518 206.224 69.7445 208.548C67.7372 210.872 64.927 211.26 60.9124 211.26C56.8978 211.26 50.4745 209.323 56.8978 206.999C63.3212 204.674 50.073 201.188 55.6934 198.476C61.3139 195.765 57.2993 196.927 60.1095 190.342Z" stroke="white"/>
<path d="M119.85 219.417C120.85 213.917 129 213.917 135 217.417" stroke="white" stroke-linecap="round"/>
</svg>
