<svg width="240" height="240" viewBox="0 0 240 240" fill="none" xmlns="http://www.w3.org/2000/svg">
<path d="M77.1108 46.094C73.7184 47.0897 70.7242 49.4424 67.4499 53.3512M67.4499 53.3512C64.1755 57.26 46.6829 83.0283 49.6259 100.588C51.9772 114.617 84.0677 111.098 99.8802 107.573C99.9219 107.564 99.9623 107.56 100.005 107.562C101.499 107.608 103.854 107.418 101.778 106.284M67.4499 53.3512C76.3477 54.7928 81.9712 60.1431 82.9669 63.5355C83.6568 65.886 81.4241 67.0674 79.7422 67.4967C79.3981 67.5845 79.1973 67.986 79.2909 68.3286C80.1392 71.4324 78.108 78.8516 77.3698 82.1278C76.7297 84.9686 73.7747 88.71 72.3772 90.2256M101.778 106.284C99.1448 104.846 99.1924 91.1984 101.825 92.6365C102.205 92.844 102.514 92.9651 102.756 93.018M101.778 106.284C109.404 107.271 124.225 106.701 122.494 96.5189C121.346 89.7722 116.474 90.5797 112.497 92.7858C111.96 93.0834 111.43 92.4894 111.847 92.0394C113.868 89.8587 115.558 87.6035 114.119 86.8174C113.066 86.2422 106.105 90.7114 102.756 93.018M87.5806 90.5534C88.9375 90.1551 98.7941 89.8414 101.228 90.601C103.31 91.2509 104.194 93.3318 102.756 93.018M87.5806 90.5534C86.2236 90.9517 91.0875 98.7358 85.5786 102.563M87.5806 90.5534C84.9207 89.8602 79.106 88.5454 77.1266 88.8316C75.1472 89.1178 73.1356 89.8802 72.3772 90.2256M72.3772 90.2256C70.7929 92.7786 66.2356 97.9236 60.6808 98.0801M87.7269 43.3466C92.4358 43.07 92.716 41.5138 96.6653 43.6709M96.6653 43.6709C100.615 45.828 116.607 61.3997 119.321 60.6032M96.6653 43.6709C99.5749 49.8178 97.4178 53.7671 100.685 62.3883C103.952 71.0095 110.179 78.0304 108.679 88.0304M119.321 60.6032C122.035 59.8066 124.864 68.1881 122.747 71.0201M119.321 60.6032C120.932 59.3936 124.487 56.3602 125.83 53.9029C127.172 51.4455 128.306 49.3685 128.706 48.6371M128.706 48.6371C128.692 49.0096 129.28 50.09 131.737 51.4322C134.194 52.7743 138.162 51.1432 139.838 50.1598M128.706 48.6371C129.694 41.9604 132.292 28.7189 134.782 29.1672C137.272 29.6156 136.508 35.0475 135.815 37.7074C136.761 34.2362 139.109 27.0867 140.929 26.2577C143.204 25.2215 148.23 28.5364 150.063 33.5255C151.529 37.5167 143.857 46.278 139.838 50.1598M139.838 50.1598C139.145 52.8197 137.751 58.363 137.718 59.2568C137.678 60.3741 135.676 72.3842 133.998 75.4559C132.32 78.5275 127.246 88.8599 121.144 84.3872C116.261 80.809 109.701 76.1316 106.43 73.7754M87.4576 70.7356L99.2457 68.2898C99.5415 68.2284 99.7157 67.9208 99.6163 67.6356L95.3044 55.2672C95.2146 55.0097 94.9351 54.8716 94.676 54.9568L85.1372 58.0939C84.901 58.1716 84.7578 58.411 84.8011 58.6559L86.8636 70.333C86.9127 70.6107 87.1815 70.7929 87.4576 70.7356Z" stroke="white"/>
<path d="M76.8323 115.448C78.099 117.95 79.3907 120.407 80.8126 122.763M123.965 105.299C151.979 104.077 163.148 110.748 168.134 115.18C169.957 116.801 171.099 129.748 171.788 146.041M171.788 146.041C172.595 165.124 172.781 188.797 172.715 204.236C172.713 204.554 173.004 204.786 173.316 204.721C179.283 203.462 190.414 201.092 193.34 209.847C196.262 218.592 166.514 227.669 159.131 227.625C153.226 227.59 152.019 220.133 152.155 216.408L149.902 186.18C149.899 186.14 149.891 186.102 149.879 186.064C148.66 182.329 145.793 173.136 143.923 165.765C142.116 158.644 141.642 148.25 141.622 143.415C141.62 143.117 141.351 142.888 141.055 142.92C102.096 147.071 89.1935 136.654 80.8126 122.763M171.788 146.041C175.903 135.376 188.375 110.83 183.425 100.743C178.841 91.403 163.682 83.6929 132.955 85.7107M139.063 151.716C132.22 161.462 119.173 181.872 121.725 185.545C124.915 190.136 144.901 200.482 146.697 200.324M65.5801 43.2144C58.7952 45.2058 46.303 48.2589 45.4176 62.397M45.4176 62.397C44.5322 76.5351 41.1192 113.033 50.4523 120.979C57.9189 127.336 73.8036 124.817 80.8126 122.763M45.4176 62.397C48.81 61.4013 56.4725 59.8893 59.983 61.8067" stroke="white"/>
<path d="M95.9869 43.87C100.939 36.8896 105.359 24.6181 90.679 16.0304C75.9991 7.44265 64.8593 20.3075 64.0716 29.2869C63.3085 37.9857 68.8915 44.4533 74.3563 48.0079" stroke="white"/>
<path d="M98.4391 45.6709C104.126 37.6552 108.715 24.4608 91.8582 14.5994C75.001 4.738 62.6949 18.6138 61.7904 28.9249C60.9141 38.9138 67.3251 46.3407 73.6005 50.4225" stroke="white" stroke-linecap="round"/>
<path d="M88.9623 46.3003C87.6864 44.4639 85.6545 38.7964 86.7718 38.8369C87.8891 38.8774 89.884 39.3973 90.603 38.0809C91.3221 36.7644 92.0005 36.5653 91.3626 35.6471C91.0044 35.1316 92.0931 34.6391 93.2157 34.3041C93.6638 34.1704 93.7543 33.5351 93.3439 33.311L90.0001 31.4847C89.6739 31.3065 89.6482 30.8433 89.9169 30.5865C90.3826 30.1413 90.7344 29.6068 90.2488 29.3416C89.3712 28.8623 83.3864 27.3026 82.7079 27.5018C82.1922 27.6531 80.6259 29.6652 79.7973 30.8006C79.7174 30.9102 79.5974 30.981 79.4647 31.0088C78.6256 31.1846 77.4198 31.7507 78.0361 32.9261C78.8732 34.5228 83.3424 34.6849 82.863 35.5625C82.5001 36.227 81.5362 37.9918 81.0275 38.923C80.9742 39.0206 80.9553 39.1326 80.9731 39.2424L81.7894 44.2644C81.8299 44.5133 81.6787 44.7534 81.4367 44.8244L77.8871 45.8662C77.5305 45.9709 77.4139 46.4082 77.6958 46.6506C79.0906 47.85 81.824 49.4804 85.05 49.2909C88.8171 49.0695 89.068 47.4974 88.7226 46.7391" stroke="white"/>
<path d="M90.448 30.0201C92.524 28.3054 96.038 23.9578 86.9815 20.7204C80.1479 18.2777 78.2403 22.3436 78.0891 25.068C78.0743 25.3345 77.8712 25.5565 77.6064 25.59C75.3764 25.8723 71.9313 27.1913 72.9695 30.7285C74.3634 35.4779 79.6697 37.2367 78.9102 39.6705C78.3025 41.6174 80.3852 42.1853 81.5025 42.2258" stroke="white"/>
<path d="M197.679 17.0304C210.325 17.0304 218.679 27.2672 218.679 40.0304C218.679 46.407 216.588 51.5195 212.949 55.0382C209.307 58.5588 204.065 60.5304 197.679 60.5304C191.29 60.5304 185.535 58.5557 181.386 55.0167C177.245 51.484 174.679 46.3731 174.679 40.0304C174.679 27.3278 184.976 17.0304 197.679 17.0304Z" stroke="white"/>
<path d="M46.1898 135.03C52.4854 135.03 56.679 140.179 56.679 146.677C56.679 149.92 55.6287 152.496 53.8226 154.262C52.015 156.029 49.4016 157.03 46.1898 157.03C42.9747 157.03 40.0934 156.026 38.0238 154.24C35.9612 152.461 34.6792 149.886 34.679 146.677C34.679 140.24 39.8378 135.031 46.1898 135.03Z" stroke="white"/>
<path d="M34.7326 149.463C26.4714 154.727 18.1056 160.179 20.64 161.427C24.5276 163.342 71.179 137.976 71.179 134.148C71.179 131.982 59.1922 136.062 54.1707 137.976" stroke="white" stroke-linecap="round"/>
</svg>
