<svg xmlns="http://www.w3.org/2000/svg" viewBox="0 0 541 718">
  <g>
    <path fill="#FFFFFF" d="M260.9,4.5c4.7-6,12.1-6,16.8,0l232.7,294.6c4.7,6,1.4,10.8-7.3,10.8H35.4c-8.7,0-12-4.9-7.3-10.8L260.9,4.5z"/>
    <path fill="#D1D3D4" d="M261.6,40.1c4,0,7.3,3.3,7.3,7.3v100.9c0,4-3.3,7.3-7.3,7.3s-7.3-3.3-7.3-7.3V47.4C254.3,43.4,257.6,40.1,261.6,40.1z"/>
    <path fill="#FFFFFF" d="M261.6,183c74.4,0,134.7,60.3,134.7,134.7v282.8c0,11.3-9.1,20.4-20.4,20.4H147.4c-11.3,0-20.4-9.1-20.4-20.4V317.7C127,243.3,187.3,183,261.6,183z"/>
    <path fill="#FFFFFF" d="M261.6,37.3c27.1,0,49.1,22,49.1,49.1S288.7,135.5,261.6,135.5s-49.1-22-49.1-49.1S234.5,37.3,261.6,37.3z"/>
    <path fill="#D1D3D4" d="M396.3,317.7v282.8c0,11.3-9.1,20.4-20.4,20.4h-25.7V317.7c0-49.1-39.8-88.9-88.9-88.9h-10.8c-0.2,0-0.4,0-0.7,0c2.8-0.9,5.7-1.4,8.8-1.4C333.1,227.4,391.2,267.8,396.3,317.7z"/>
    <path fill="#D1D3D4" d="M518.3,478.7l-49.8-112.5c-2.3-5.3-8.8-7.3-13.8-4.5l-33.1,18.8c5.4,14.6,8.4,30.4,8.4,46.9v108.8c0,11.2,9,20.3,20.1,20.4h4.4c17.9,0.2,33.3-11.8,37.6-29.3L518.3,478.7z"/>
    <path fill="#FFFFFF" d="M495.4,379.7c7,0,12.7,5.7,12.7,12.7v205.1c0,7-5.7,12.7-12.7,12.7h-72.2c-7,0-12.7-5.7-12.7-12.7V392.4c0-7,5.7-12.7,12.7-12.7H495.4z"/>
    <path fill="#D1D3D4" d="M4.6,478.7l49.8-112.5c2.3-5.3,8.8-7.3,13.8-4.5l33.1,18.8c-5.4,14.6-8.4,30.4-8.4,46.9v108.8c0,11.2-9,20.3-20.1,20.4h-4.4c-17.9,0.2-33.3-11.8-37.6-29.3L4.6,478.7z"/>
    <path fill="#FFFFFF" d="M27.5,379.7c-7,0-12.7,5.7-12.7,12.7v205.1c0,7,5.7,12.7,12.7,12.7h72.2c7,0,12.7-5.7,12.7-12.7V392.4c0-7-5.7-12.7-12.7-12.7H27.5z"/>
    <path fill="#0B3D91" d="M261.6,41.9c12.2,0,22,9.9,22,22s-9.9,22-22,22s-22-9.9-22-22S249.4,41.9,261.6,41.9z"/>
    <path fill="#FFFFFF" d="M87.5,604.2h348.3c15,0,27.1,12.1,27.1,27.1v60.9c0,15-12.1,27.1-27.1,27.1H87.5c-15,0-27.1-12.1-27.1-27.1v-60.9C60.4,616.4,72.5,604.2,87.5,604.2z"/>
    <path fill="#D1D3D4" d="M435.8,719.3H87.5c-15,0-27.1-12.1-27.1-27.1v-12.1h402.5v12.1C462.9,707.2,450.8,719.3,435.8,719.3z"/>
    <path fill="#FC3D21" d="M198,642.7h127.3c4.1,0,7.3,3.3,7.3,7.3v10.3c0,4.1-3.3,7.3-7.3,7.3H198c-4.1,0-7.3-3.3-7.3-7.3v-10.3C190.7,646,194,642.7,198,642.7z"/>
    <rect x="156.9" y="445.8" fill="#D1D3D4" width="209.4" height="15.8"/>
    <circle fill="#FC3D21" cx="261.6" cy="453.7" r="14.1"/>
  </g>
</svg>
